<svg xmlns="http://www.w3.org/2000/svg" width="100" height="100" viewBox="0 0 100 100"><path d="M86.862 56.619c-1.412-3.016.721-11.265-3.699-14.654-4.418-3.389-5.103-9.104-8.969-11.063-1.848-.936-3.15-2.092-4.699-3.353-.331-.66-.768-1.169-1.324-1.486-1.021-.582-1.955-1.043-2.831-1.428-.831-.48-1.759-.962-2.836-1.443-.586-.261-1.255-.312-1.985-.187-1.931-.501-3.632-.867-5.479-1.803-3.867-1.958-8.879.872-14.225-.685-5.348-1.56-10.735 5.043-14.004 5.69-3.267.645-6.657 5.319-9.014 7.449-2.356 2.131-3.352 7.122-5.456 9.763-2.104 2.642-2.524 4.985-1.64 11.313.886 6.329 6.795 1.988 8.151 1.604 2.164-.613 1.824-1.425 4.434-1.877 1.153-.2 1.172.147 3.076-.839 1.158-.598 1.392-.491 1.752-.497 4.408-.093 3.616-1.801 8.298.06 1.736.69 2.859.437 3.686.111-2.967-10.762 2.148-27.52 1.234-15.627-.64 8.332.48 13.55 1.368 16.233.181.348.374.789.588 1.358.96 2.55 1.893 4.494 3.72 5.362 1.814 1.074 3.983.665 6.685-.092.461-.129.832-.213 1.167-.276 11.801-4.502 19.876-15.282 17.64-10.252-2.218 4.99-12.153 9.977-15.437 11.515.202.919.518 2.166 2.371 3.327 4.269 2.673 2.424 3.044 4.958 6.653.207.293.431.42.634 1.706.333 2.118.624 1.929 1.145 2.977 1.18 2.37.325 2.577 1.109 4.685.494 1.322.491 8.651 6.117 5.621 5.626-3.031 7.266-4.756 8.15-8.015.884-3.259 4.319-7.015 4.642-10.175.322-3.16 2.085-8.658.673-11.675z" fill="#72c4b9"/></svg>