<svg xmlns="http://www.w3.org/2000/svg" width="100" height="100" viewBox="0 0 100 100"><path d="M42.649 52.139c1.122 0 2.031-.909 2.031-2.029 0-1.123-.909-2.031-2.031-2.031-1.121 0-2.029.909-2.029 2.031 0 1.119.908 2.029 2.029 2.029zm30.234-7.666h-8.906v-36.473h-8.555v9.891h-13.786v-9.891h-8.555v36.473h-8.909l-13.114 43.84 31.696 4.495 5.774-12.738 5.773 12.738 31.699-4.495-13.117-43.84zm-25.859-25.244c.589 0 1.121.238 1.504.623.387-.384.919-.623 1.508-.623 1.175 0 2.129.955 2.129 2.129 0 .432-.13.833-.351 1.168-.236.312-3.013 2.952-3.286 2.952-.27 0-3.079-2.671-3.284-2.952-.22-.335-.35-.736-.35-1.168.001-1.174.956-2.129 2.13-2.129zm-5.388 7.589h13.786v17.655h-13.786v-17.655zm17.945 27.747h-22.107v-8.993h22.107v8.993zm-5.175-2.426c1.121 0 2.029-.909 2.029-2.029 0-1.123-.908-2.031-2.029-2.031s-2.029.909-2.029 2.031c0 1.119.908 2.029 2.029 2.029z" fill="#72c4b9"/></svg>