<svg xmlns="http://www.w3.org/2000/svg" width="100" height="100" viewBox="0 0 100 100"><path d="M92.748 43.283c.185-8.406-6.026-12.053-6.614-12.486-.587-.433-.68-.804-.804-1.391s-.649-.247-.989.155c-7.17-.556-7.819 5.285-7.85 5.903-.031.618.216 1.267-.464 1.514-.68.247-.742.958-.247 1.669.494.711.68 1.607.247 2.441-1.08 2.164-3.027 1.824-3.027 1.824s.247-.865.494-1.7c.464-2.102-1.143-2.565-2.318-3.029-1.174-.464-5.841-1.298-6.768-1.514-.402-.371-2.534-3.338-4.265-6.614-1.731-3.276-5.124-3.894-5.625-3.894.124-.402 1.36-2.04 1.669-2.256.618-.958-.087-1.607-.525-1.607-.062-.216-.34-.402-.34-.402s-1.607-5.192-2.936-5.192c-1.576 0-2.751 4.172-2.936 5.192-.185.031-.494.464-.494.464s-.505-.095-.632.063c-.294.365-.335 1.019.2 1.513.371.525.371 1.205 1.113 2.256-2.287.185-4.018 2.411-5.068 3.585-1.051 1.174-6.552 7.355-6.552 7.355s-3.77.247-6.037 1.324-.948 3.435-.33 4.053c1.051 5.007-.618 9.024-2.102 11.373-2.967 0-6.614-3.77-7.664-6.428-1.051-2.658-4.512-7.294-5.625-8.282s-2.102-.742-3.276-.494c-2.225 1.607-5.13 1.545-5.254 2.534-.124.989.989.433 2.287.742 4.141 1.298 5.81 6.614 8.035 14.649s5.996 10.384 8.282 11.126c0 3.956 3.77 6.366 4.698 6.799.927.433 1.36 1.545 2.163 1.978.804.433.804.68 1.483 2.225 1.792 4.265 3.647 5.254 6.49 5.748 2.843.494 3.709.742 5.501 1.483s7.603.927 9.951 0c2.349-.927 3.152-1.051 5.377-1.051s4.698-1.669 5.563-2.596c.865-.927.247-2.102 1.36-2.905s.928-1.73.867-2.41c9.642-4.698 9.426-12.238 9.333-13.413 1.514.031.865-2.318 1.082-3.523 1.36-5.254 6.861-4.728 7.263-4.667s.618.031.618-.525l-.525-.989s5.005-2.194 5.191-10.6zm-8.808 8.9c-.742-.185-1.823-.818-1.792.008.031.826 1.051 1.506.031 1.939-1.02.433-1.885 1.02-4.45 4.265-1.02-.989-6.583-6.706-5.594-10.106 0 0 3.647-1.422 5.13-4.358s1.174-4.419 1.174-4.419 1.669.278 2.225 0 .433-1.082-.247-1.391c-.68-.309-2.256-1.329-1.36-3.461.896-2.132 5.779-3.338 8.282 0s3.894 8.066 2.194 12.764c-.865 1.885-2.812 4.945-5.593 4.759z" fill="#72c4b9"/></svg>